solid OpenSCAD_Model
  facet normal -1 -0 -0
    outer loop
      vertex 0 0 0
      vertex 0 0 23
      vertex 0 11 0
    endloop
  endfacet
  facet normal -1 0 0
    outer loop
      vertex 0 11 0
      vertex 0 0 23
      vertex 0 11 23
    endloop
  endfacet
  facet normal 0 -1 0
    outer loop
      vertex 0 0 23
      vertex 0 0 0
      vertex 15 0 0
    endloop
  endfacet
  facet normal 0 -1 0
    outer loop
      vertex 15 0 23
      vertex 0 0 23
      vertex 15 0 0
    endloop
  endfacet
  facet normal -0 -0 -1
    outer loop
      vertex 0 0 0
      vertex 0 11 0
      vertex 15 0 0
    endloop
  endfacet
  facet normal 0 0 -1
    outer loop
      vertex 15 0 0
      vertex 0 11 0
      vertex 15 11 0
    endloop
  endfacet
  facet normal 0 1 0
    outer loop
      vertex 0 11 0
      vertex 0 11 23
      vertex 15 11 0
    endloop
  endfacet
  facet normal 0 1 0
    outer loop
      vertex 15 11 0
      vertex 0 11 23
      vertex 15 11 23
    endloop
  endfacet
  facet normal 0 -0 1
    outer loop
      vertex 0 11 23
      vertex 0 0 23
      vertex 15 0 23
    endloop
  endfacet
  facet normal 0 0 1
    outer loop
      vertex 15 11 23
      vertex 0 11 23
      vertex 15 0 23
    endloop
  endfacet
  facet normal 1 0 -0
    outer loop
      vertex 15 0 23
      vertex 15 0 0
      vertex 15 11 0
    endloop
  endfacet
  facet normal 1 0 0
    outer loop
      vertex 15 11 23
      vertex 15 0 23
      vertex 15 11 0
    endloop
  endfacet
endsolid OpenSCAD_Model
